<?xml version="1.0" encoding="UTF-8"?>
<svg id="Capa_1" data-name="Capa 1" xmlns="http://www.w3.org/2000/svg" version="1.1" viewBox="0 0 200 200">
  <defs>
    <style>
      .cls-1 {
        fill: #fe2c55;
      }

      .cls-1, .cls-2, .cls-3 {
        stroke-width: 0px;
      }

      .cls-2 {
        fill: #000;
      }

      .cls-3 {
        fill: #25f4ee;
      }
    </style>
  </defs>
  <path class="cls-3" d="M80.5,78.8v-7.8c-2.7-.4-5.4-.7-8.2-.7-26.5,0-50,17.1-58,42.4-8,25.3,1.4,52.8,23.2,68-16.3-17.4-20.8-42.9-11.6-64.9,9.3-22,30.6-36.5,54.5-37h0Z"/>
  <path class="cls-3" d="M82,167c14.8,0,27-11.7,27.7-26.5V8.4h24.1C133.3,5.6,133,2.8,133.1,0h-33v132c-.5,14.9-12.8,26.7-27.7,26.7-4.5,0-8.8-1.1-12.8-3.2,5.2,7.2,13.5,11.5,22.4,11.5ZM178.9,53.2v-7.3c-8.9,0-17.6-2.6-25-7.5,6.5,7.5,15.3,12.8,25,14.9Z"/>
  <path class="cls-1" d="M153.9,38.3c-7.3-8.3-11.3-19-11.3-30h-8.8c2.3,12.3,9.6,23.2,20.1,30ZM72.3,103.3c-12.7,0-23.8,8.8-26.8,21.1s2.8,25.2,14,31.1c-9-12.4-6.2-29.7,6.2-38.6,4.7-3.4,10.4-5.3,16.2-5.3,2.8,0,5.5.5,8.2,1.3v-33.6c-2.7-.4-5.4-.6-8.2-.6h-1.5v25.6c-2.7-.7-5.4-1-8.2-1h0Z"/>
  <path class="cls-1" d="M178.9,53.2v25.6c-16.5,0-32.5-5.2-45.8-14.9v67.1c0,33.5-27.2,60.6-60.8,60.6-12.4,0-24.6-3.8-34.8-11,17,18.2,43.4,24.3,66.6,15.1,23.2-9.1,38.4-31.5,38.5-56.4v-66.9c13.4,9.6,29.4,14.7,45.9,14.7v-32.9c-3.2,0-6.4-.4-9.6-1Z"/>
  <path class="cls-2" d="M133.1,131V63.9c13.4,9.6,29.4,14.7,45.9,14.7v-25.6c-9.7-2.1-18.5-7.2-25-14.7-10.5-6.8-17.8-17.7-20.1-30h-24.1v132.2c-.5,11.8-8.4,22-19.7,25.4-11.3,3.4-23.5-.7-30.5-10.3-11.3-5.9-17-18.8-14-31.1,3-12.4,14.1-21.1,26.8-21.1,2.8,0,5.5.5,8.2,1.3v-25.6c-24,.4-45.5,15-54.8,37.1-9.3,22.1-4.6,47.7,11.9,65.1,10.3,6.9,22.4,10.5,34.8,10.3,33.5,0,60.7-27.1,60.8-60.6h0Z"/>
</svg>