<?xml version="1.0" encoding="UTF-8"?>
<svg id="Capa_1" data-name="Capa 1" xmlns="http://www.w3.org/2000/svg" xmlns:xlink="http://www.w3.org/1999/xlink" version="1.1" viewBox="0 0 200 200">
  <defs>
    <style>
      .cls-1 {
        fill-opacity: .2;
      }

      .cls-1, .cls-2 {
        fill: #000;
      }

      .cls-1, .cls-2, .cls-3, .cls-4, .cls-5 {
        stroke-width: 0px;
      }

      .cls-3 {
        fill: url(#Degradado_sin_nombre_2);
      }

      .cls-4 {
        fill: url(#Degradado_sin_nombre);
      }

      .cls-5 {
        fill: #fff;
        fill-rule: evenodd;
      }
    </style>
    <linearGradient id="Degradado_sin_nombre" data-name="Degradado sin nombre" x1="-155.2" y1="112.6" x2="-155.2" y2="-110.7" gradientTransform="translate(232.2 98.5) scale(.9)" gradientUnits="userSpaceOnUse">
      <stop offset="0" stop-color="#20b038"/>
      <stop offset="1" stop-color="#60d66a"/>
    </linearGradient>
    <linearGradient id="Degradado_sin_nombre_2" data-name="Degradado sin nombre 2" x1="-145.5" y1="107.3" x2="-145.5" y2="-124.1" gradientTransform="translate(224 106.5) scale(.9)" gradientUnits="userSpaceOnUse">
      <stop offset="0" stop-color="#f9f9f9"/>
      <stop offset="1" stop-color="#fff"/>
    </linearGradient>
  </defs>
  <g>
    <path id="e" class="cls-2" d="M2.2,99.5c0,17.3,4.5,34.3,13.1,49.2L1.4,199.6l52-13.7c14.3,7.8,30.5,12,46.9,12h0c54.1,0,98.1-44.1,98.2-98.4,0-26.3-10.2-51-28.7-69.6C151.3,11.3,126.7,1.1,100.4,1.1,46.3,1.1,2.3,45.2,2.2,99.5Z"/>
    <path id="e-2" data-name="e" class="cls-1" d="M2.2,99.5c0,17.3,4.5,34.3,13.1,49.2L1.4,199.6l52-13.7c14.3,7.8,30.5,12,46.9,12h0c54.1,0,98.1-44.1,98.2-98.4,0-26.3-10.2-51-28.7-69.6C151.3,11.3,126.7,1.1,100.4,1.1,46.3,1.1,2.3,45.2,2.2,99.5Z"/>
  </g>
  <path class="cls-4" d="M5.8,98.4c0,16.7,4.4,33,12.6,47.3l-13.4,49.1,50.2-13.2c13.8,7.5,29.4,11.5,45.2,11.5h0c52.2,0,94.7-42.5,94.7-94.7,0-25.3-9.8-49.1-27.7-67C149.6,13.7,125.8,3.8,100.5,3.8,48.3,3.8,5.8,46.2,5.8,98.4"/>
  <path class="cls-3" d="M2.4,98.4c0,17.3,4.5,34.2,13.1,49L1.6,198.2l52-13.6c14.3,7.8,30.5,11.9,46.9,11.9h0c54.1,0,98.1-44,98.1-98.1,0-26.2-10.2-50.8-28.7-69.4C151.3,10.6,126.7.4,100.5.4,46.4.4,2.4,44.3,2.4,98.4h0ZM33.3,144.9l-1.9-3.1c-8.2-13-12.5-28-12.5-43.4,0-44.9,36.6-81.5,81.6-81.5,21.8,0,42.2,8.5,57.6,23.9,15.4,15.4,23.9,35.9,23.9,57.7,0,44.9-36.6,81.5-81.5,81.5h0c-14.6,0-29-3.9-41.5-11.4l-3-1.8-30.9,8.1,8.2-30.1Z"/>
  <path class="cls-5" d="M76,57.4c-1.8-4.1-3.8-4.2-5.5-4.2-1.4,0-3.1,0-4.7,0s-4.3.6-6.5,3.1c-2.2,2.5-8.6,8.4-8.6,20.4s8.8,23.7,10,25.3c1.2,1.6,17,27.2,41.9,37,20.7,8.2,24.9,6.5,29.4,6.1,4.5-.4,14.5-5.9,16.5-11.7,2-5.7,2-10.6,1.4-11.7-.6-1-2.2-1.6-4.7-2.9-2.5-1.2-14.5-7.2-16.7-8-2.2-.8-3.9-1.2-5.5,1.2-1.6,2.5-6.3,8-7.8,9.6-1.4,1.6-2.9,1.8-5.3.6-2.5-1.2-10.3-3.8-19.7-12.2-7.3-6.5-12.2-14.5-13.6-17-1.4-2.5-.2-3.8,1.1-5,1.1-1.1,2.5-2.9,3.7-4.3,1.2-1.4,1.6-2.5,2.4-4.1.8-1.6.4-3.1-.2-4.3-.6-1.2-5.4-13.3-7.6-18.2"/>
</svg>