<?xml version="1.0" encoding="UTF-8"?>
<svg id="Capa_1" data-name="Capa 1" xmlns="http://www.w3.org/2000/svg" version="1.1" viewBox="0 0 200 200">
  <defs>
    <style>
      .cls-1 {
        fill: #1877f2;
      }

      .cls-1, .cls-2 {
        stroke-width: 0px;
      }

      .cls-2 {
        fill: #fff;
      }
    </style>
  </defs>
  <path class="cls-1" d="M200,100C200,44.8,155.2,0,100,0S0,44.8,0,100s36.6,91.3,84.4,98.8v-69.9h-25.4v-28.9h25.4v-22c0-25.1,14.9-38.9,37.8-38.9s22.4,2,22.4,2v24.6h-12.6c-12.4,0-16.3,7.7-16.3,15.6v18.8h27.7l-4.4,28.9h-23.3v69.9c47.8-7.5,84.4-48.9,84.4-98.8"/>
  <path class="cls-2" d="M138.9,128.9l4.4-28.9h-27.7v-18.8c0-7.9,3.9-15.6,16.3-15.6h12.6v-24.6s-11.4-2-22.4-2c-22.8,0-37.8,13.8-37.8,38.9v22h-25.4v28.9h25.4v69.9c5.2.8,10.4,1.2,15.6,1.2,5.3,0,10.5-.4,15.6-1.2v-69.9h23.3"/>
</svg>